<?xml version="1.0" standalone="no"?>
<!DOCTYPE svg PUBLIC "-//W3C//DTD SVG 20010904//EN"
 "http://www.w3.org/TR/2001/REC-SVG-20010904/DTD/svg10.dtd">
<svg version="1.0" xmlns="http://www.w3.org/2000/svg"
 width="3000.000000pt" height="3000.000000pt" viewBox="0 0 3000.000000 3000.000000"
 preserveAspectRatio="xMidYMid meet">

<g transform="translate(0.000000,3000.000000) scale(0.100000,-0.100000)"
fill="#000000" stroke="none">
<path d="M14804 24807 c-65 -22 -141 -63 -616 -338 -984 -569 -2507 -1449
-3413 -1971 -614 -354 -1412 -815 -2690 -1553 -192 -111 -746 -431 -1230 -710
-2020 -1166 -2233 -1290 -2288 -1332 -98 -75 -167 -184 -202 -318 -29 -113
-21 -209 85 -975 107 -769 595 -4305 879 -6370 94 -679 177 -1261 186 -1293
19 -73 45 -125 82 -159 28 -27 126 -77 153 -79 11 0 11 -2 2 -6 -10 -4 -10 -8
-2 -18 9 -10 18 -11 36 -4 14 5 27 9 29 9 1 0 3 -26 2 -59 0 -74 30 -130 105
-194 56 -46 142 -107 153 -107 4 0 26 -13 50 -30 24 -16 47 -30 51 -30 4 0 30
-14 58 -32 28 -17 76 -45 106 -61 30 -16 74 -42 97 -57 22 -16 51 -31 62 -35
12 -3 21 -11 21 -16 0 -5 4 -8 8 -6 5 1 31 -13 59 -30 27 -18 59 -36 69 -39
10 -4 37 -19 59 -34 22 -15 72 -44 110 -65 168 -92 259 -147 263 -157 2 -4 12
-8 22 -8 9 0 23 -6 29 -14 12 -14 78 -50 94 -51 4 0 11 -5 15 -11 4 -6 39 -28
77 -49 39 -21 73 -43 77 -49 4 -6 8 -7 8 -3 0 4 25 -8 55 -28 31 -19 57 -35
59 -35 3 0 39 -20 80 -45 42 -25 81 -45 86 -45 6 0 10 -4 10 -10 0 -5 4 -10 9
-10 5 0 49 -23 98 -52 48 -28 126 -73 173 -100 47 -27 123 -72 169 -99 46 -27
87 -49 91 -49 4 0 19 -9 33 -20 13 -11 56 -36 93 -56 38 -20 81 -45 96 -55 14
-11 29 -19 33 -19 3 0 26 -14 50 -30 24 -17 51 -30 59 -30 9 0 16 -3 16 -8 0
-4 9 -12 20 -17 56 -28 245 -140 248 -147 2 -4 8 -8 14 -8 5 0 49 -24 97 -52
48 -29 109 -64 137 -78 27 -14 51 -28 54 -31 3 -4 43 -28 90 -54 47 -26 114
-64 150 -85 36 -21 76 -45 90 -53 14 -8 54 -31 90 -52 36 -21 83 -48 105 -60
22 -13 80 -46 128 -74 49 -28 92 -51 97 -51 5 0 10 -4 12 -9 2 -4 38 -28 81
-52 42 -24 103 -59 135 -76 31 -18 67 -37 79 -42 11 -6 24 -14 27 -19 3 -6 34
-24 68 -42 35 -18 70 -38 78 -45 8 -8 27 -16 42 -20 15 -4 29 -13 32 -21 3 -8
14 -14 24 -14 11 0 25 -7 32 -15 7 -8 16 -15 21 -15 5 0 35 -17 66 -37 32 -21
60 -38 63 -38 3 -1 23 -12 45 -26 22 -13 42 -24 45 -24 7 -1 72 -41 86 -53 6
-5 21 -13 35 -17 13 -4 37 -18 52 -31 16 -13 39 -27 52 -30 13 -3 26 -12 29
-21 3 -8 10 -12 15 -8 5 3 13 1 16 -5 4 -6 32 -24 63 -40 62 -32 85 -45 179
-102 34 -21 64 -38 67 -38 2 0 78 -43 168 -97 153 -91 285 -166 353 -203 17
-9 50 -29 75 -45 25 -15 51 -28 57 -28 7 0 13 -3 13 -7 0 -4 26 -22 58 -39 31
-18 77 -45 102 -61 25 -16 52 -29 61 -29 9 -1 24 -10 34 -21 10 -11 21 -17 25
-15 4 3 13 -2 20 -9 6 -8 39 -29 73 -47 88 -45 101 -53 107 -61 3 -4 17 -12
30 -18 14 -6 52 -26 85 -45 181 -102 263 -128 390 -127 143 2 219 28 423 146
306 177 577 333 622 359 45 25 143 82 320 185 83 49 668 386 759 438 18 10 77
44 130 75 53 31 220 127 371 214 151 87 331 191 400 230 336 195 896 519 990
572 58 33 150 86 205 118 55 32 156 91 225 130 69 39 170 98 225 130 55 32
120 69 145 83 25 14 73 43 108 64 34 21 64 38 66 38 3 0 38 20 79 44 41 24
153 89 248 144 96 55 188 108 206 118 18 11 151 87 295 170 145 84 319 185
388 225 69 40 170 98 225 129 125 71 198 114 298 173 43 26 81 47 83 47 2 0
23 11 45 26 22 14 57 34 77 46 20 11 141 80 267 153 426 246 879 507 1045 603
91 52 179 102 195 112 54 32 419 243 465 268 25 14 108 62 185 107 77 45 163
95 190 111 28 16 58 33 67 39 22 14 64 38 118 67 57 32 196 112 370 213 74 43
220 127 323 187 220 126 286 170 344 226 69 67 77 90 81 233 5 147 -4 174 -72
237 -54 49 -66 57 -1601 942 -1261 728 -2218 1280 -3580 2067 -1846 1066
-1687 977 -1807 1009 -39 10 -101 17 -166 17 -101 0 -104 0 -98 21 19 71 28
160 23 235 -3 47 -38 313 -76 591 -71 511 -171 1229 -751 5425 -177 1276 -327
2350 -335 2386 -15 75 -52 154 -87 186 -60 56 -187 85 -264 60z"/>
</g>
</svg>
